<svg version="1.1" id="Layer_1" xmlns="http://www.w3.org/2000/svg" xmlns:xlink="http://www.w3.org/1999/xlink" x="0px" y="0px"
	 width="100%" viewBox="0 0 1280 769" enable-background="new 0 0 1280 769" xml:space="preserve">
<path fill="#FFFFFF" opacity="1.000000" stroke="none" 
	d="
M733.000000,770.000000 
	C488.696381,770.000000 244.892776,770.000000 1.044582,770.000000 
	C1.044582,513.727661 1.044582,257.455261 1.044582,1.091449 
	C427.553680,1.091449 854.107422,1.091449 1280.830566,1.091449 
	C1280.830566,257.333252 1280.830566,513.666626 1280.830566,770.000000 
	C1098.455200,770.000000 915.977600,770.000000 733.000000,770.000000 
M156.367249,342.964874 
	C159.364975,331.105865 162.362701,319.246887 165.360428,307.387878 
	C165.766678,307.444916 166.172943,307.501923 166.579193,307.558960 
	C173.360123,335.048065 180.141037,362.537170 186.885788,389.879578 
	C200.567535,389.879578 213.549927,389.879578 226.893188,389.879578 
	C238.536835,345.378998 250.173431,300.905334 261.915466,256.028687 
	C250.951111,256.028687 240.463120,256.145599 229.980560,255.958649 
	C226.763657,255.901276 225.491486,256.748077 224.727036,260.103790 
	C218.965790,285.393921 212.924484,310.620300 206.957977,335.863556 
	C206.463440,337.955841 205.874817,340.025848 205.329926,342.106201 
	C203.928696,340.126221 203.441620,338.370331 202.967514,336.610992 
	C196.090332,311.090424 189.241333,285.562164 182.271255,260.066986 
	C181.866806,258.587616 180.516464,256.243164 179.550049,256.214752 
	C169.784607,255.927567 160.007431,256.039673 150.297134,256.039673 
	C142.439285,285.269531 134.726547,313.959625 127.013802,342.649719 
	C126.760880,342.616455 126.507957,342.583160 126.255028,342.549866 
	C119.547440,313.795288 112.839851,285.040710 106.155518,256.385803 
	C93.947769,256.385803 82.102112,256.385803 69.994278,256.385803 
	C81.638031,301.149170 93.177597,345.511993 104.703110,389.820801 
	C118.298347,389.820801 131.429367,389.820801 144.770264,389.820801 
	C148.583908,374.387512 152.367538,359.075745 156.367249,342.964874 
M1010.418457,358.500244 
	C1010.418457,346.023804 1010.418457,333.547363 1010.418457,321.070892 
	C1012.375732,322.348358 1013.137878,323.757538 1013.808411,325.209015 
	C1021.825195,342.563202 1030.644165,359.608185 1037.525146,377.402313 
	C1041.565918,387.851562 1047.113525,391.918060 1057.938354,390.171051 
	C1060.925537,389.688934 1062.576904,389.055695 1063.853394,386.260437 
	C1073.175293,365.846954 1082.651489,345.503906 1092.096313,325.146667 
	C1092.816772,323.594025 1093.669434,322.102722 1094.460571,320.582886 
	C1094.724365,320.658203 1094.988159,320.733490 1095.251953,320.808807 
	C1095.251953,343.722900 1095.251953,366.637024 1095.251953,389.774231 
	C1106.740112,389.774231 1117.835205,389.774231 1129.125732,389.774231 
	C1129.125732,345.214844 1129.125732,300.776245 1129.125732,256.028656 
	C1118.234863,256.028656 1107.582275,256.178497 1096.938110,255.940598 
	C1093.589600,255.865784 1092.075073,256.937042 1090.673340,259.987976 
	C1079.014160,285.364014 1067.134155,310.638550 1055.310791,335.939026 
	C1054.602539,337.454468 1053.807373,338.929291 1052.749512,341.023193 
	C1051.829102,339.052368 1051.335449,338.000610 1050.846069,336.946838 
	C1038.945068,311.315369 1027.070557,285.671448 1015.079773,260.081970 
	C1014.344604,258.512909 1012.720886,256.243378 1011.461365,256.210968 
	C999.856140,255.912064 988.240051,256.034698 976.512329,256.034698 
	C976.512329,300.952820 976.512329,345.339935 976.512329,389.717224 
	C987.917969,389.717224 998.996643,389.717224 1010.418091,389.717224 
	C1010.418091,379.456879 1010.418091,369.478577 1010.418457,358.500244 
M374.528412,380.437225 
	C374.528412,383.546417 374.528412,386.655640 374.528412,389.884125 
	C397.946808,389.884125 420.752960,389.905609 443.558868,389.846222 
	C445.535034,389.841095 447.517426,389.345947 449.484100,389.004608 
	C464.991882,386.312927 476.328857,375.855347 478.854858,361.557404 
	C481.831177,344.710693 476.580688,329.734863 461.683136,322.724823 
	C461.333710,322.560394 461.184418,321.970703 460.946869,321.587555 
	C468.467102,315.984711 471.506195,312.055237 473.578491,305.306732 
	C480.572388,282.530518 467.077332,260.739716 443.563202,257.001648 
	C439.799744,256.403381 435.952606,256.092102 432.141846,256.071411 
	C414.488586,255.975433 396.834503,256.022919 379.180695,256.039459 
	C377.746521,256.040802 376.312469,256.196198 375.001953,256.272797 
	C374.792145,256.926849 374.605652,257.237122 374.605377,257.547546 
	C374.570923,298.183746 374.550079,338.819916 374.528412,380.437225 
M619.144043,286.365662 
	C597.930725,253.750595 556.315308,244.582855 523.656799,265.330109 
	C492.095001,285.380646 482.933533,328.081696 503.280212,360.304169 
	C522.963074,391.475281 565.253052,401.127747 596.870605,381.665710 
	C629.507446,361.576202 639.483398,319.915863 619.144043,286.365662 
M930.520813,286.936829 
	C927.183716,277.716858 923.952454,268.455688 920.397156,259.320679 
	C919.853882,257.924622 917.832031,256.201385 916.460938,256.171967 
	C904.807251,255.921814 893.145874,256.028931 881.179077,256.028931 
	C865.062561,300.595245 848.977356,345.074799 832.815186,389.767120 
	C845.427612,389.767120 857.538208,389.767120 869.605286,389.767120 
	C871.748291,383.048187 873.955322,376.594238 875.821045,370.043091 
	C876.538574,367.523682 877.607910,366.551849 880.281799,366.575592 
	C893.613647,366.694183 906.948608,366.734039 920.278931,366.549500 
	C923.278015,366.507996 924.286255,367.769318 925.032288,370.305634 
	C926.953003,376.835419 929.084595,383.303162 931.115784,389.744385 
	C943.242981,389.744385 955.152954,389.744385 967.655579,389.744385 
	C955.280029,355.436829 943.055054,321.546692 930.520813,286.936829 
M354.398071,362.145203 
	C352.969238,361.501465 351.547211,360.317078 350.110535,360.299133 
	C338.118530,360.149200 326.123840,360.213989 314.129944,360.213989 
	C311.365631,360.213989 308.601318,360.213989 305.907715,360.213989 
	C305.907715,352.414978 305.907715,345.332886 305.907715,337.799072 
	C319.609161,337.799072 333.022705,337.799072 346.638489,337.799072 
	C346.638489,327.782776 346.638489,318.226074 346.638489,308.030029 
	C332.837463,308.030029 319.303162,308.030029 305.958435,308.030029 
	C305.958435,300.308105 305.958435,293.230804 305.958435,285.716858 
	C322.201416,285.716858 338.103882,285.716858 354.202759,285.716858 
	C354.202759,275.662415 354.202759,266.059509 354.202759,256.269531 
	C326.584625,256.269531 299.190399,256.269531 271.588867,256.269531 
	C271.588867,300.894379 271.588867,345.273804 271.588867,389.736023 
	C299.272217,389.736023 326.666199,389.736023 354.422119,389.736023 
	C354.422119,380.663727 354.422119,371.857391 354.398071,362.145203 
M746.074280,311.500000 
	C746.074280,337.588898 746.074280,363.677795 746.074280,389.665955 
	C774.139343,389.665955 801.544250,389.665955 828.786438,389.665955 
	C828.786438,379.740784 828.786438,370.156464 828.786438,360.134155 
	C812.539429,360.134155 796.619080,360.134155 780.604614,360.134155 
	C780.604614,352.484253 780.604614,345.289215 780.604614,337.654602 
	C794.412231,337.654602 807.834595,337.654602 821.307678,337.654602 
	C821.307678,327.638947 821.307678,318.076324 821.307678,308.077667 
	C807.520813,308.077667 794.093201,308.077667 780.447021,308.077667 
	C780.447021,300.552826 780.447021,293.470947 780.447021,285.794617 
	C796.720154,285.794617 812.773865,285.794617 828.864197,285.794617 
	C828.864197,275.607788 828.864197,266.017548 828.864197,256.318054 
	C801.217041,256.318054 773.824768,256.318054 746.074280,256.318054 
	C746.074280,274.570953 746.074280,292.535492 746.074280,311.500000 
M705.628418,285.839752 
	C715.234558,285.839752 724.840698,285.839752 734.647644,285.839752 
	C734.647644,275.677979 734.647644,266.102722 734.647644,256.402283 
	C701.407104,256.402283 668.397644,256.402283 635.492188,256.402283 
	C635.492188,266.352386 635.492188,275.925537 635.492188,285.890259 
	C646.418213,285.890259 657.006897,285.890259 668.164612,285.890259 
	C668.164612,320.807343 668.164612,355.327667 668.164612,389.791992 
	C679.685120,389.791992 690.625122,389.791992 702.000732,389.791992 
	C702.000732,387.814362 702.000732,386.022400 702.000732,384.230469 
	C702.000732,352.915527 701.983032,321.600525 702.046814,290.285706 
	C702.050476,288.490356 700.733704,285.511230 705.628418,285.839752 
M1184.497070,359.836700 
	C1176.115479,355.438080 1168.532593,356.286407 1162.619385,362.284088 
	C1157.534668,367.441467 1156.265015,375.664032 1159.563599,382.074432 
	C1162.764893,388.295746 1169.712402,392.334564 1176.236328,391.766815 
	C1183.231201,391.158081 1189.704712,386.069641 1191.780396,379.548096 
	C1194.067383,372.362946 1191.840820,365.887299 1184.497070,359.836700 
M1051.747925,483.956116 
	C1043.786133,484.912079 1038.513794,489.281433 1036.471924,496.945465 
	C1034.652100,503.776062 1036.531494,509.939972 1042.040161,514.471252 
	C1050.102783,521.103333 1058.254883,519.419495 1065.263794,514.289185 
	C1066.929810,515.911194 1068.247681,517.194153 1069.565430,518.477112 
	C1069.986206,518.159912 1070.406860,517.842651 1070.827515,517.525391 
	C1070.827515,498.059540 1070.870117,478.593353 1070.713623,459.128754 
	C1070.704834,458.044739 1069.048462,456.973938 1068.158936,455.897003 
	C1067.620117,456.196045 1067.081177,456.495056 1066.542236,456.794098 
	C1066.542236,467.320587 1066.542236,477.847076 1066.542236,487.678680 
	C1061.633545,486.354004 1057.124512,485.137177 1051.747925,483.956116 
M254.494736,509.925385 
	C255.434647,508.607483 256.374542,507.289551 257.241119,506.074463 
	C254.507141,502.607056 253.308701,505.059174 251.778168,506.808075 
	C244.473526,515.154846 233.008133,516.963806 223.770782,511.300110 
	C214.943939,505.888123 211.251724,494.948669 214.943283,485.145721 
	C220.792267,469.613647 240.930069,466.361206 251.964798,479.254211 
	C253.737808,481.325714 255.023285,482.769196 257.044617,479.780579 
	C251.422745,470.198242 240.549103,465.254852 230.319946,467.561920 
	C218.581467,470.209412 210.727219,478.884918 209.381439,490.689789 
	C208.244156,500.665680 214.286102,511.263397 223.819977,516.015259 
	C234.004547,521.091492 244.999573,519.068909 254.494736,509.925385 
M344.060883,517.644775 
	C351.555786,520.167236 357.902954,517.823120 362.192780,513.817749 
	C365.668091,515.737183 368.298401,517.303833 371.059753,518.588806 
	C371.460815,518.775452 372.848511,517.744812 373.106537,517.033325 
	C373.293152,516.518738 372.411926,514.992920 371.927032,514.955627 
	C367.262726,514.596619 367.518921,511.174194 367.489349,508.016968 
	C367.424011,501.039581 367.522156,494.060211 367.396942,487.084442 
	C367.381256,486.210968 366.420074,485.354523 365.896973,484.490173 
	C365.072906,485.228058 364.119568,485.869720 363.472412,486.739258 
	C363.072906,487.276031 363.139862,488.159943 362.971069,489.022797 
	C351.637512,481.337311 340.810211,482.707123 335.100098,492.312866 
	C329.653046,501.475983 333.136993,512.008850 344.060883,517.644775 
M960.648865,517.021851 
	C971.602783,520.978394 981.544373,516.565735 983.598694,506.053314 
	C981.739563,506.822296 980.004272,507.852020 978.796448,509.316711 
	C974.970093,513.956909 969.245483,515.782288 963.553894,513.897583 
	C958.405396,512.192688 955.332214,508.011932 955.033386,501.810333 
	C960.000305,501.810333 964.950928,501.810364 969.901550,501.810364 
	C974.864990,501.810364 979.828491,501.810333 984.749207,501.810333 
	C985.378052,494.212799 981.329407,487.782013 974.489807,485.069458 
	C966.221191,481.790161 956.855286,485.242889 952.683167,493.108551 
	C948.138672,501.676300 950.969482,510.853058 960.648865,517.021851 
M419.505646,501.814667 
	C425.270538,501.814667 431.035461,501.814667 436.771240,501.814667 
	C436.898529,492.099121 430.402344,484.722565 421.616791,483.973450 
	C411.920441,483.146667 403.982147,489.411163 402.550781,499.019318 
	C401.230377,507.882507 407.255035,516.071655 416.127747,518.303040 
	C424.200470,520.333252 434.961182,514.313599 436.065094,504.806793 
	C433.528381,506.820312 431.769989,507.797394 430.575043,509.240875 
	C426.532990,514.123901 420.736664,515.905396 414.909424,513.771851 
	C409.771912,511.890839 406.746063,507.395142 407.087921,501.814636 
	C410.881195,501.814636 414.696106,501.814636 419.505646,501.814667 
M323.501770,506.589386 
	C320.630035,505.190552 319.470642,507.055786 317.999786,509.106201 
	C314.348602,514.196106 308.250000,515.910156 302.470673,513.810486 
	C297.422821,511.976593 294.285889,507.422302 294.448029,501.713135 
	C304.360565,501.713135 314.291016,501.713135 325.699860,501.713135 
	C323.795471,497.320007 322.807770,493.415802 320.630432,490.358917 
	C316.170135,484.096832 307.546661,482.197021 300.439148,485.210144 
	C293.252563,488.256836 288.971161,495.932922 290.035431,503.862701 
	C291.063049,511.519135 297.354645,517.512085 305.485077,518.578918 
	C313.124634,519.581421 319.990540,515.278687 323.501770,506.589386 
M732.560913,501.814667 
	C739.616760,501.814667 746.672607,501.814667 753.757507,501.814667 
	C752.943909,490.703400 746.186584,483.935730 736.641663,483.899719 
	C727.533997,483.865356 720.030762,490.643860 719.129150,499.720825 
	C718.245850,508.613464 724.496460,516.671570 733.590271,518.363770 
	C742.252808,519.975708 750.391602,514.921692 752.163757,505.992401 
	C750.279602,506.777679 748.506226,507.805939 747.277161,509.286102 
	C743.270203,514.111816 737.329041,515.914246 731.598633,513.765564 
	C726.598999,511.890900 723.557312,507.431427 723.641235,501.814636 
	C726.284485,501.814636 728.934326,501.814636 732.560913,501.814667 
M994.375244,507.869843 
	C998.450256,515.502686 1004.752502,519.386353 1011.907837,518.673950 
	C1019.217407,517.946106 1024.517700,513.629395 1026.267334,506.041443 
	C1024.369263,506.765778 1022.560120,507.735870 1021.347412,509.199921 
	C1017.391479,513.975647 1011.941284,515.788086 1006.169556,513.923096 
	C1000.893311,512.218262 997.656738,507.777863 997.558533,501.560486 
	C1007.610779,501.560486 1017.665283,501.560486 1027.914429,501.560486 
	C1027.395142,493.715088 1024.143311,488.193878 1017.407837,485.309631 
	C1010.918274,482.530701 1004.589050,483.405609 999.216553,488.119507 
	C993.380981,493.239655 991.771973,499.711090 994.375244,507.869843 
M682.091614,516.121033 
	C684.003845,516.975647 685.869629,517.986511 687.859924,518.578857 
	C688.379944,518.733582 689.625854,517.714417 689.899109,516.992432 
	C690.084106,516.503662 689.200378,515.001709 688.711121,514.961243 
	C684.143372,514.582886 684.160034,511.318024 684.152710,508.050903 
	C684.135315,500.273804 684.147095,492.496643 684.147095,484.719513 
	C683.581421,484.470856 683.015686,484.222198 682.450012,483.973572 
	C681.334595,485.526947 680.219177,487.080353 679.125122,488.603912 
	C669.583191,482.216431 660.893799,482.320770 654.273193,489.153687 
	C648.374268,495.241821 647.446716,505.026764 652.935242,511.474457 
	C655.371948,514.336853 659.041443,516.644287 662.610229,517.942078 
	C669.340271,520.389465 675.101562,517.114136 680.184204,512.804810 
	C680.848450,513.983459 681.254761,514.704407 682.091614,516.121033 
M818.574585,517.251526 
	C823.780457,515.185059 826.446106,511.191376 826.760376,505.758362 
	C827.082825,500.182343 824.243591,496.209808 819.475891,493.643860 
	C815.091797,491.284454 810.514343,489.280609 806.159729,486.871338 
	C802.539368,484.868286 801.230103,481.504791 802.088745,477.510742 
	C802.943237,473.536407 806.059937,471.436310 809.674072,471.434753 
	C812.797363,471.433411 815.902893,473.058716 819.052979,473.811554 
	C820.545593,474.168274 822.123718,474.166840 823.663147,474.327667 
	C823.690308,473.749939 823.717529,473.172211 823.744690,472.594482 
	C818.825623,467.630890 812.983765,465.694550 806.143616,468.015411 
	C801.140930,469.712799 798.265503,473.278748 797.804504,478.726654 
	C797.165588,486.276184 801.986267,489.763062 807.798950,492.612518 
	C811.376587,494.366302 815.060547,495.952454 818.460815,498.004730 
	C821.706848,499.963837 823.800903,503.399841 822.235291,506.882446 
	C820.969788,509.697327 818.214783,512.805237 815.421265,513.780884 
	C808.445007,516.217590 802.815247,513.304443 799.136963,507.002380 
	C795.682922,507.751434 795.077026,509.293121 797.197510,511.845703 
	C802.764221,518.546936 809.778931,520.021667 818.574585,517.251526 
M582.259033,516.387878 
	C590.304688,520.089050 597.832703,518.991516 603.298950,513.320435 
	C608.374695,508.054474 609.574402,500.077240 606.280457,493.495026 
	C602.948730,486.837311 596.194946,483.212585 588.608337,484.010437 
	C582.050964,484.700043 576.047058,489.707123 574.133301,496.082245 
	C571.832153,503.747986 574.366516,510.522888 582.259033,516.387878 
M880.738098,484.886444 
	C872.295959,488.722656 867.949280,495.864960 869.242065,503.776398 
	C870.571045,511.909241 876.810669,517.733948 885.161926,518.637573 
	C892.630005,519.445679 899.695129,514.823853 902.137207,506.800171 
	C900.305481,507.389465 898.409424,508.106049 897.195679,509.442383 
	C893.957214,513.007935 890.143860,515.008606 885.321716,514.567078 
	C878.959229,513.984497 874.048828,509.295074 873.141541,503.200592 
	C872.289124,497.474976 875.364868,491.714508 880.618225,489.197479 
	C886.180786,486.532257 892.691406,488.054199 896.970215,492.751556 
	C898.233093,494.138000 900.056641,495.013824 901.623291,496.123657 
	C899.112427,486.246063 891.484741,482.441498 880.738098,484.886444 
M933.621216,489.513855 
	C936.464600,491.776733 939.307983,494.039612 942.151367,496.302521 
	C940.926025,487.671356 933.425232,483.002655 924.934753,484.007263 
	C916.673889,484.984711 910.127380,492.253601 909.928711,500.669281 
	C909.718933,509.554901 915.537109,516.719421 924.290955,518.354919 
	C932.599915,519.907410 940.343201,515.403015 943.610413,505.892944 
	C941.103638,507.326843 939.292725,507.857697 938.233459,509.054047 
	C933.018311,514.943848 926.012207,516.384827 919.983093,512.546326 
	C914.323608,508.942993 912.205383,501.478027 915.123657,495.420776 
	C918.262695,488.905334 925.289368,486.433411 933.621216,489.513855 
M561.486267,518.002441 
	C562.119934,516.948303 563.260864,515.913147 563.301025,514.836914 
	C563.493103,509.689056 563.104919,504.511505 563.441284,499.378540 
	C564.324951,485.898926 552.279846,479.759369 543.295776,486.352112 
	C541.393860,485.510284 540.019836,484.902069 538.282593,484.133087 
	C538.282593,496.030609 538.282593,506.935059 538.282593,517.839478 
	C538.762024,518.063293 539.241455,518.287048 539.720886,518.510864 
	C540.480408,517.317078 541.849060,516.146729 541.896240,514.925476 
	C542.126953,508.947723 541.909058,502.954376 542.037231,496.970551 
	C542.154480,491.495636 545.568298,487.958344 550.533936,487.848755 
	C555.534180,487.738403 559.104370,491.064972 559.436279,496.554169 
	C559.686829,500.696808 559.386719,504.870911 559.579529,509.019501 
	C559.718628,512.010925 560.265503,514.983337 561.486267,518.002441 
M521.535583,503.534180 
	C521.535828,507.356049 521.351990,511.192139 521.644653,514.991455 
	C521.736633,516.185852 523.108337,517.281677 523.894348,518.422668 
	C524.336548,518.157288 524.778809,517.891968 525.221008,517.626648 
	C525.221008,510.177551 525.638489,502.693268 525.015625,495.296600 
	C524.766235,492.335907 522.838928,488.900269 520.603882,486.847382 
	C515.462036,482.124603 509.739288,483.299347 505.581787,486.363251 
	C503.321259,485.461090 501.942902,484.910980 500.303223,484.256561 
	C500.303223,496.091522 500.303223,506.987091 500.303223,517.882629 
	C500.791077,518.106079 501.278931,518.329468 501.766785,518.552856 
	C502.510986,517.325867 503.850037,516.121826 503.898224,514.868042 
	C504.127777,508.894714 503.906616,502.905640 504.039307,496.926483 
	C504.160400,491.470764 507.600525,487.939484 512.567566,487.846710 
	C517.561035,487.753387 521.016052,491.088684 521.461792,496.576385 
	C521.622681,498.558167 521.518860,500.561462 521.535583,503.534180 
M859.524658,492.654419 
	C859.525146,484.932404 859.525146,484.932404 855.602173,484.935455 
	C855.602173,491.725433 855.787109,498.530212 855.546021,505.319916 
	C855.338379,511.166901 851.989014,514.666504 847.227966,514.691650 
	C842.336670,514.717529 839.026245,510.875427 838.933167,504.853119 
	C838.845642,499.192169 838.827209,493.527191 838.943542,487.867371 
	C839.001587,485.040558 838.221436,483.769043 835.013855,484.983307 
	C835.013855,492.505829 834.761780,499.983551 835.089539,507.435791 
	C835.377563,513.983093 840.457825,518.542908 846.854736,518.734436 
	C853.252380,518.925903 858.478394,514.642212 859.146240,508.074371 
	C859.632874,503.289062 859.423523,498.433014 859.524658,492.654419 
M697.071350,484.375610 
	C694.764221,484.488953 691.956665,484.116821 693.514709,488.062622 
	C695.136536,488.296387 696.733765,488.526611 698.837952,488.829865 
	C698.837952,495.946777 698.688293,502.889801 698.882446,509.823242 
	C699.057312,516.069885 704.855591,520.283203 710.110779,518.137268 
	C710.977234,517.783447 711.510986,516.615051 711.281372,516.879578 
	C708.104492,514.365845 703.655884,512.598511 703.336304,510.265472 
	C702.363342,503.163269 702.983521,495.842773 702.983521,488.353241 
	C706.225403,488.353241 708.866455,488.353241 711.785828,488.353241 
	C711.785828,487.140076 711.956543,485.417938 711.760132,485.375000 
	C708.968323,484.764557 706.126770,484.381531 702.845764,483.873688 
	C702.845764,480.319946 702.730103,476.687164 702.880432,473.065399 
	C703.013306,469.863129 701.621033,469.375092 699.236267,470.286072 
	C698.808228,475.043884 698.399475,479.586670 697.071350,484.375610 
M386.000000,499.479614 
	C386.000000,495.863617 386.000000,492.247650 386.000000,488.525604 
	C389.257477,488.374573 392.023254,488.246368 395.348511,488.092194 
	C394.071014,481.892731 388.965363,485.977600 385.999054,483.620911 
	C385.999054,480.369720 385.905884,476.569763 386.025879,472.776611 
	C386.140533,469.152710 384.325409,469.689301 381.837402,470.586792 
	C381.837402,475.212067 381.837402,479.655701 381.837402,483.134766 
	C379.601898,484.481262 377.978699,485.458984 376.355469,486.436646 
	C377.997009,487.377106 379.638550,488.317566 382.001770,489.671478 
	C382.001770,495.556610 381.922028,502.332825 382.026520,509.106201 
	C382.112823,514.702454 385.834167,518.840576 390.734741,518.606079 
	C392.325867,518.529907 393.862976,517.325012 395.424774,516.636353 
	C386.078766,513.842529 386.002380,513.748047 386.000031,504.455353 
	C385.999725,503.124908 386.000000,501.794434 386.000000,499.479614 
M636.291138,493.713562 
	C633.900330,499.850616 631.509521,505.987671 628.728210,513.127136 
	C625.167664,503.884552 622.005981,495.745850 618.904663,487.584137 
	C617.993347,485.185669 616.915405,483.437103 613.679321,485.255249 
	C617.809326,495.571411 621.825195,505.731903 626.002686,515.825562 
	C626.394958,516.773315 627.797058,517.850098 628.745789,517.864807 
	C629.671265,517.879089 631.094604,516.804932 631.479919,515.870605 
	C635.701294,505.635193 639.762146,495.333496 643.866638,485.049805 
	C643.493530,484.683167 643.120422,484.316528 642.747314,483.949860 
	C641.486816,484.961548 639.861755,485.745728 639.054077,487.040009 
	C637.932739,488.836792 637.424805,491.016418 636.291138,493.713562 
M486.020935,467.985809 
	C483.255157,467.121643 482.084167,467.949066 482.169128,471.023529 
	C482.338776,477.162354 482.219208,483.309174 482.219177,489.452698 
	C482.219147,498.882111 482.219208,508.311523 482.219208,517.541260 
	C486.013916,518.929321 486.742920,517.419739 486.717377,514.397766 
	C486.588287,499.125092 486.595581,483.851257 486.020935,467.985809 
M267.145264,503.494507 
	C267.145538,507.325470 267.250885,511.160217 267.114014,514.986267 
	C266.996796,518.262817 268.491272,518.553894 271.195953,517.518616 
	C271.195953,512.448486 271.190094,507.457153 271.197174,502.465790 
	C271.212311,491.839172 274.252197,488.544891 285.389832,487.640961 
	C285.079956,486.406921 284.622314,484.234070 284.525696,484.250000 
	C280.271545,484.951721 276.049255,485.846588 271.908600,486.700684 
	C271.096924,486.119659 269.957764,485.304230 268.818665,484.488800 
	C268.260864,485.827667 267.280579,487.148346 267.222076,488.508667 
	C267.021820,493.163849 267.145294,497.832947 267.145264,503.494507 
M769.208618,513.819580 
	C769.807129,512.527039 770.405640,511.234467 771.004089,509.941895 
	C770.662720,509.567200 770.321289,509.192474 769.979858,508.817749 
	C768.559143,509.865417 766.545654,510.608368 765.822632,512.014709 
	C763.056519,517.395325 760.705444,522.989319 758.199341,528.503662 
	C758.538513,528.849915 758.877686,529.196228 759.216858,529.542480 
	C760.438171,528.498962 762.049683,527.680786 762.807312,526.369324 
	C765.028870,522.523926 766.910583,518.482178 769.208618,513.819580 
M449.833191,510.243744 
	C447.044739,516.309570 444.256256,522.375427 441.342194,528.714417 
	C445.479858,528.475220 449.645721,521.967651 454.057343,509.671661 
	C452.713806,509.671661 451.509521,509.671661 449.833191,510.243744 
z"/>
<path fill="#18445E" opacity="1.000000" stroke="none" 
	d="
M156.259201,343.364441 
	C152.367538,359.075745 148.583908,374.387512 144.770264,389.820801 
	C131.429367,389.820801 118.298347,389.820801 104.703110,389.820801 
	C93.177597,345.511993 81.638031,301.149170 69.994278,256.385803 
	C82.102112,256.385803 93.947769,256.385803 106.155518,256.385803 
	C112.839851,285.040710 119.547440,313.795288 126.255028,342.549866 
	C126.507957,342.583160 126.760880,342.616455 127.013802,342.649719 
	C134.726547,313.959625 142.439285,285.269531 150.297134,256.039673 
	C160.007431,256.039673 169.784607,255.927567 179.550049,256.214752 
	C180.516464,256.243164 181.866806,258.587616 182.271255,260.066986 
	C189.241333,285.562164 196.090332,311.090424 202.967514,336.610992 
	C203.441620,338.370331 203.928696,340.126221 205.329926,342.106201 
	C205.874817,340.025848 206.463440,337.955841 206.957977,335.863556 
	C212.924484,310.620300 218.965790,285.393921 224.727036,260.103790 
	C225.491486,256.748077 226.763657,255.901276 229.980560,255.958649 
	C240.463120,256.145599 250.951111,256.028687 261.915466,256.028687 
	C250.173431,300.905334 238.536835,345.378998 226.893188,389.879578 
	C213.549927,389.879578 200.567535,389.879578 186.885788,389.879578 
	C180.141037,362.537170 173.360123,335.048065 166.579193,307.558960 
	C166.172943,307.501923 165.766678,307.444916 165.360428,307.387878 
	C162.362701,319.246887 159.364975,331.105865 156.259201,343.364441 
z"/>
<path fill="#18445E" opacity="1.000000" stroke="none" 
	d="
M1010.418274,359.000275 
	C1010.418091,369.478577 1010.418091,379.456879 1010.418091,389.717224 
	C998.996643,389.717224 987.917969,389.717224 976.512329,389.717224 
	C976.512329,345.339935 976.512329,300.952820 976.512329,256.034698 
	C988.240051,256.034698 999.856140,255.912064 1011.461365,256.210968 
	C1012.720886,256.243378 1014.344604,258.512909 1015.079773,260.081970 
	C1027.070557,285.671448 1038.945068,311.315369 1050.846069,336.946838 
	C1051.335449,338.000610 1051.829102,339.052368 1052.749512,341.023193 
	C1053.807373,338.929291 1054.602539,337.454468 1055.310791,335.939026 
	C1067.134155,310.638550 1079.014160,285.364014 1090.673340,259.987976 
	C1092.075073,256.937042 1093.589600,255.865784 1096.938110,255.940598 
	C1107.582275,256.178497 1118.234863,256.028656 1129.125732,256.028656 
	C1129.125732,300.776245 1129.125732,345.214844 1129.125732,389.774231 
	C1117.835205,389.774231 1106.740112,389.774231 1095.251953,389.774231 
	C1095.251953,366.637024 1095.251953,343.722900 1095.251953,320.808807 
	C1094.988159,320.733490 1094.724365,320.658203 1094.460571,320.582886 
	C1093.669434,322.102722 1092.816772,323.594025 1092.096313,325.146667 
	C1082.651489,345.503906 1073.175293,365.846954 1063.853394,386.260437 
	C1062.576904,389.055695 1060.925537,389.688934 1057.938354,390.171051 
	C1047.113525,391.918060 1041.565918,387.851562 1037.525146,377.402313 
	C1030.644165,359.608185 1021.825195,342.563202 1013.808411,325.209015 
	C1013.137878,323.757538 1012.375732,322.348358 1010.418457,321.070892 
	C1010.418457,333.547363 1010.418457,346.023804 1010.418274,359.000275 
z"/>
<path fill="#18445E" opacity="1.000000" stroke="none" 
	d="
M374.528503,379.946655 
	C374.550079,338.819916 374.570923,298.183746 374.605377,257.547546 
	C374.605652,257.237122 374.792145,256.926849 375.001953,256.272797 
	C376.312469,256.196198 377.746521,256.040802 379.180695,256.039459 
	C396.834503,256.022919 414.488586,255.975433 432.141846,256.071411 
	C435.952606,256.092102 439.799744,256.403381 443.563202,257.001648 
	C467.077332,260.739716 480.572388,282.530518 473.578491,305.306732 
	C471.506195,312.055237 468.467102,315.984711 460.946869,321.587555 
	C461.184418,321.970703 461.333710,322.560394 461.683136,322.724823 
	C476.580688,329.734863 481.831177,344.710693 478.854858,361.557404 
	C476.328857,375.855347 464.991882,386.312927 449.484100,389.004608 
	C447.517426,389.345947 445.535034,389.841095 443.558868,389.846222 
	C420.752960,389.905609 397.946808,389.884125 374.528412,389.884125 
	C374.528412,386.655640 374.528412,383.546417 374.528503,379.946655 
M408.780334,348.499237 
	C408.780334,352.277710 408.780334,356.056183 408.780334,360.098694 
	C417.956726,360.098694 426.589386,360.325714 435.202911,360.017487 
	C440.781952,359.817871 444.885162,355.153992 445.329224,349.489288 
	C445.763031,343.954895 442.306488,337.755646 437.132965,337.372131 
	C427.787872,336.679474 418.354645,337.176147 408.780304,337.176147 
	C408.780304,340.859741 408.780304,344.182800 408.780334,348.499237 
M437.372528,289.060394 
	C435.660126,288.078461 433.978912,286.318878 432.229950,286.248718 
	C424.500916,285.938660 416.752411,286.114594 409.168945,286.114594 
	C409.168945,294.085480 409.168945,301.640411 409.168945,309.347595 
	C415.544006,309.347595 421.532776,309.227570 427.514343,309.383636 
	C432.794647,309.521362 437.015411,307.853699 439.558960,303.047272 
	C442.104431,298.237274 441.253571,293.744659 437.372528,289.060394 
z"/>
<path fill="#0EC1DF" opacity="1.000000" stroke="none" 
	d="
M619.344849,286.669312 
	C639.483398,319.915863 629.507446,361.576202 596.870605,381.665710 
	C565.253052,401.127747 522.963074,391.475281 503.280212,360.304169 
	C482.933533,328.081696 492.095001,285.380646 523.656799,265.330109 
	C556.315308,244.582855 597.930725,253.750595 619.344849,286.669312 
M525.852173,319.731415 
	C523.637634,343.571228 542.866211,362.088379 568.273010,357.559052 
	C586.996338,354.221222 597.945129,338.118317 595.996155,318.062805 
	C594.338013,301.000092 579.756287,288.113586 561.860901,287.895935 
	C542.483643,287.660339 528.106079,300.026581 525.852173,319.731415 
z"/>
<path fill="#18445E" opacity="1.000000" stroke="none" 
	d="
M930.675415,287.296692 
	C943.055054,321.546692 955.280029,355.436829 967.655579,389.744385 
	C955.152954,389.744385 943.242981,389.744385 931.115784,389.744385 
	C929.084595,383.303162 926.953003,376.835419 925.032288,370.305634 
	C924.286255,367.769318 923.278015,366.507996 920.278931,366.549500 
	C906.948608,366.734039 893.613647,366.694183 880.281799,366.575592 
	C877.607910,366.551849 876.538574,367.523682 875.821045,370.043091 
	C873.955322,376.594238 871.748291,383.048187 869.605286,389.767120 
	C857.538208,389.767120 845.427612,389.767120 832.815186,389.767120 
	C848.977356,345.074799 865.062561,300.595245 881.179077,256.028931 
	C893.145874,256.028931 904.807251,255.921814 916.460938,256.171967 
	C917.832031,256.201385 919.853882,257.924622 920.397156,259.320679 
	C923.952454,268.455688 927.183716,277.716858 930.675415,287.296692 
M887.958374,331.438751 
	C887.250061,333.783691 886.541748,336.128601 885.781677,338.645142 
	C895.765076,338.645142 905.279846,338.645142 915.255249,338.645142 
	C910.333679,323.080444 905.538879,307.916779 900.392029,291.639740 
	C896.066284,305.402954 892.098755,318.026245 887.958374,331.438751 
z"/>
<path fill="#19465F" opacity="1.000000" stroke="none" 
	d="
M354.410095,362.598145 
	C354.422119,371.857391 354.422119,380.663727 354.422119,389.736023 
	C326.666199,389.736023 299.272217,389.736023 271.588867,389.736023 
	C271.588867,345.273804 271.588867,300.894379 271.588867,256.269531 
	C299.190399,256.269531 326.584625,256.269531 354.202759,256.269531 
	C354.202759,266.059509 354.202759,275.662415 354.202759,285.716858 
	C338.103882,285.716858 322.201416,285.716858 305.958435,285.716858 
	C305.958435,293.230804 305.958435,300.308105 305.958435,308.030029 
	C319.303162,308.030029 332.837463,308.030029 346.638489,308.030029 
	C346.638489,318.226074 346.638489,327.782776 346.638489,337.799072 
	C333.022705,337.799072 319.609161,337.799072 305.907715,337.799072 
	C305.907715,345.332886 305.907715,352.414978 305.907715,360.213989 
	C308.601318,360.213989 311.365631,360.213989 314.129944,360.213989 
	C326.123840,360.213989 338.118530,360.149200 350.110535,360.299133 
	C351.547211,360.317078 352.969238,361.501465 354.410095,362.598145 
z"/>
<path fill="#18455F" opacity="1.000000" stroke="none" 
	d="
M746.074280,311.000000 
	C746.074280,292.535492 746.074280,274.570953 746.074280,256.318054 
	C773.824768,256.318054 801.217041,256.318054 828.864197,256.318054 
	C828.864197,266.017548 828.864197,275.607788 828.864197,285.794617 
	C812.773865,285.794617 796.720154,285.794617 780.447021,285.794617 
	C780.447021,293.470947 780.447021,300.552826 780.447021,308.077667 
	C794.093201,308.077667 807.520813,308.077667 821.307678,308.077667 
	C821.307678,318.076324 821.307678,327.638947 821.307678,337.654602 
	C807.834595,337.654602 794.412231,337.654602 780.604614,337.654602 
	C780.604614,345.289215 780.604614,352.484253 780.604614,360.134155 
	C796.619080,360.134155 812.539429,360.134155 828.786438,360.134155 
	C828.786438,370.156464 828.786438,379.740784 828.786438,389.665955 
	C801.544250,389.665955 774.139343,389.665955 746.074280,389.665955 
	C746.074280,363.677795 746.074280,337.588898 746.074280,311.000000 
z"/>
<path fill="#18445E" opacity="1.000000" stroke="none" 
	d="
M705.140869,285.840668 
	C700.733704,285.511230 702.050476,288.490356 702.046814,290.285706 
	C701.983032,321.600525 702.000732,352.915527 702.000732,384.230469 
	C702.000732,386.022400 702.000732,387.814362 702.000732,389.791992 
	C690.625122,389.791992 679.685120,389.791992 668.164612,389.791992 
	C668.164612,355.327667 668.164612,320.807343 668.164612,285.890259 
	C657.006897,285.890259 646.418213,285.890259 635.492188,285.890259 
	C635.492188,275.925537 635.492188,266.352386 635.492188,256.402283 
	C668.397644,256.402283 701.407104,256.402283 734.647644,256.402283 
	C734.647644,266.102722 734.647644,275.677979 734.647644,285.839752 
	C724.840698,285.839752 715.234558,285.839752 705.140869,285.840668 
z"/>
<path fill="#0EC1DF" opacity="1.000000" stroke="none" 
	d="
M1184.815796,360.028015 
	C1191.840820,365.887299 1194.067383,372.362946 1191.780396,379.548096 
	C1189.704712,386.069641 1183.231201,391.158081 1176.236328,391.766815 
	C1169.712402,392.334564 1162.764893,388.295746 1159.563599,382.074432 
	C1156.265015,375.664032 1157.534668,367.441467 1162.619385,362.284088 
	C1168.532593,356.286407 1176.115479,355.438080 1184.815796,360.028015 
z"/>
<path fill="#275169" opacity="1.000000" stroke="none" 
	d="
M1052.181641,483.938232 
	C1057.124512,485.137177 1061.633545,486.354004 1066.542236,487.678680 
	C1066.542236,477.847076 1066.542236,467.320587 1066.542236,456.794098 
	C1067.081177,456.495056 1067.620117,456.196045 1068.158936,455.897003 
	C1069.048462,456.973938 1070.704834,458.044739 1070.713623,459.128754 
	C1070.870117,478.593353 1070.827515,498.059540 1070.827515,517.525391 
	C1070.406860,517.842651 1069.986206,518.159912 1069.565430,518.477112 
	C1068.247681,517.194153 1066.929810,515.911194 1065.263794,514.289185 
	C1058.254883,519.419495 1050.102783,521.103333 1042.040161,514.471252 
	C1036.531494,509.939972 1034.652100,503.776062 1036.471924,496.945465 
	C1038.513794,489.281433 1043.786133,484.912079 1052.181641,483.938232 
M1055.919067,488.089691 
	C1054.925903,488.038086 1053.930420,487.915131 1052.939819,487.946442 
	C1045.921021,488.168152 1040.487793,493.160309 1039.942139,499.852631 
	C1039.348999,507.125671 1043.599365,512.867554 1050.665161,514.338379 
	C1057.276367,515.714661 1063.943604,511.853729 1065.962402,505.479889 
	C1068.329224,498.007538 1064.937866,491.686707 1055.919067,488.089691 
z"/>
<path fill="#265068" opacity="1.000000" stroke="none" 
	d="
M254.252991,510.193481 
	C244.999573,519.068909 234.004547,521.091492 223.819977,516.015259 
	C214.286102,511.263397 208.244156,500.665680 209.381439,490.689789 
	C210.727219,478.884918 218.581467,470.209412 230.319946,467.561920 
	C240.549103,465.254852 251.422745,470.198242 257.044617,479.780579 
	C255.023285,482.769196 253.737808,481.325714 251.964798,479.254211 
	C240.930069,466.361206 220.792267,469.613647 214.943283,485.145721 
	C211.251724,494.948669 214.943939,505.888123 223.770782,511.300110 
	C233.008133,516.963806 244.473526,515.154846 251.778168,506.808075 
	C253.308701,505.059174 254.507141,502.607056 257.241119,506.074463 
	C256.374542,507.289551 255.434647,508.607483 254.252991,510.193481 
z"/>
<path fill="#234E66" opacity="1.000000" stroke="none" 
	d="
M343.714233,517.476318 
	C333.136993,512.008850 329.653046,501.475983 335.100098,492.312866 
	C340.810211,482.707123 351.637512,481.337311 362.971069,489.022797 
	C363.139862,488.159943 363.072906,487.276031 363.472412,486.739258 
	C364.119568,485.869720 365.072906,485.228058 365.896973,484.490173 
	C366.420074,485.354523 367.381256,486.210968 367.396942,487.084442 
	C367.522156,494.060211 367.424011,501.039581 367.489349,508.016968 
	C367.518921,511.174194 367.262726,514.596619 371.927032,514.955627 
	C372.411926,514.992920 373.293152,516.518738 373.106537,517.033325 
	C372.848511,517.744812 371.460815,518.775452 371.059753,518.588806 
	C368.298401,517.303833 365.668091,515.737183 362.192780,513.817749 
	C357.902954,517.823120 351.555786,520.167236 343.714233,517.476318 
M361.284271,508.487396 
	C364.376068,502.138733 363.943298,496.743195 359.987854,492.323334 
	C356.340515,488.247681 350.622009,486.809998 345.467529,488.672699 
	C339.981232,490.655304 336.611694,495.408783 336.585022,501.203491 
	C336.559479,506.751862 339.845703,511.704865 344.870331,513.691406 
	C350.609222,515.960266 355.975800,514.436584 361.284271,508.487396 
z"/>
<path fill="#265068" opacity="1.000000" stroke="none" 
	d="
M960.306091,516.865356 
	C950.969482,510.853058 948.138672,501.676300 952.683167,493.108551 
	C956.855286,485.242889 966.221191,481.790161 974.489807,485.069458 
	C981.329407,487.782013 985.378052,494.212799 984.749207,501.810333 
	C979.828491,501.810333 974.864990,501.810364 969.901550,501.810364 
	C964.950928,501.810364 960.000305,501.810333 955.033386,501.810333 
	C955.332214,508.011932 958.405396,512.192688 963.553894,513.897583 
	C969.245483,515.782288 974.970093,513.956909 978.796448,509.316711 
	C980.004272,507.852020 981.739563,506.822296 983.598694,506.053314 
	C981.544373,516.565735 971.602783,520.978394 960.306091,516.865356 
M960.087219,490.347443 
	C958.307068,492.584686 956.526917,494.821960 954.172363,497.781128 
	C963.805908,497.781128 972.152405,497.781128 980.526489,497.781128 
	C979.533203,489.673096 968.180359,484.853027 960.087219,490.347443 
z"/>
<path fill="#275169" opacity="1.000000" stroke="none" 
	d="
M419.008301,501.814636 
	C414.696106,501.814636 410.881195,501.814636 407.087921,501.814636 
	C406.746063,507.395142 409.771912,511.890839 414.909424,513.771851 
	C420.736664,515.905396 426.532990,514.123901 430.575043,509.240875 
	C431.769989,507.797394 433.528381,506.820312 436.065094,504.806793 
	C434.961182,514.313599 424.200470,520.333252 416.127747,518.303040 
	C407.255035,516.071655 401.230377,507.882507 402.550781,499.019318 
	C403.982147,489.411163 411.920441,483.146667 421.616791,483.973450 
	C430.402344,484.722565 436.898529,492.099121 436.771240,501.814667 
	C431.035461,501.814667 425.270538,501.814667 419.008301,501.814636 
M430.087219,498.007355 
	C433.148285,498.078552 432.219757,496.416504 431.459320,494.838104 
	C429.175476,490.097626 423.432648,487.264862 417.658447,488.025299 
	C412.340973,488.725647 408.508942,492.330688 407.294891,498.010101 
	C414.627777,498.010101 421.900574,498.010101 430.087219,498.007355 
z"/>
<path fill="#275169" opacity="1.000000" stroke="none" 
	d="
M323.495117,506.943054 
	C319.990540,515.278687 313.124634,519.581421 305.485077,518.578918 
	C297.354645,517.512085 291.063049,511.519135 290.035431,503.862701 
	C288.971161,495.932922 293.252563,488.256836 300.439148,485.210144 
	C307.546661,482.197021 316.170135,484.096832 320.630432,490.358917 
	C322.807770,493.415802 323.795471,497.320007 325.699860,501.713135 
	C314.291016,501.713135 304.360565,501.713135 294.448029,501.713135 
	C294.285889,507.422302 297.422821,511.976593 302.470673,513.810486 
	C308.250000,515.910156 314.348602,514.196106 317.999786,509.106201 
	C319.470642,507.055786 320.630035,505.190552 323.495117,506.943054 
M296.394775,493.256775 
	C295.747070,494.665955 295.099365,496.075165 294.338165,497.731323 
	C303.298920,497.731323 311.510895,497.731323 319.762115,497.731323 
	C318.219055,487.984741 303.871307,484.034363 296.394775,493.256775 
z"/>
<path fill="#275169" opacity="1.000000" stroke="none" 
	d="
M732.072571,501.814636 
	C728.934326,501.814636 726.284485,501.814636 723.641235,501.814636 
	C723.557312,507.431427 726.598999,511.890900 731.598633,513.765564 
	C737.329041,515.914246 743.270203,514.111816 747.277161,509.286102 
	C748.506226,507.805939 750.279602,506.777679 752.163757,505.992401 
	C750.391602,514.921692 742.252808,519.975708 733.590271,518.363770 
	C724.496460,516.671570 718.245850,508.613464 719.129150,499.720825 
	C720.030762,490.643860 727.533997,483.865356 736.641663,483.899719 
	C746.186584,483.935730 752.943909,490.703400 753.757507,501.814667 
	C746.672607,501.814667 739.616760,501.814667 732.072571,501.814636 
M738.962891,488.062744 
	C730.128784,487.714691 725.467896,490.749146 724.151794,498.011139 
	C731.648804,498.011139 739.087524,498.016968 746.526245,498.002472 
	C747.296814,498.000977 748.067139,497.878693 748.880676,497.808777 
	C747.544678,492.403107 745.918274,490.725708 738.962891,488.062744 
z"/>
<path fill="#275169" opacity="1.000000" stroke="none" 
	d="
M994.232178,507.502930 
	C991.771973,499.711090 993.380981,493.239655 999.216553,488.119507 
	C1004.589050,483.405609 1010.918274,482.530701 1017.407837,485.309631 
	C1024.143311,488.193878 1027.395142,493.715088 1027.914429,501.560486 
	C1017.665283,501.560486 1007.610779,501.560486 997.558533,501.560486 
	C997.656738,507.777863 1000.893311,512.218262 1006.169556,513.923096 
	C1011.941284,515.788086 1017.391479,513.975647 1021.347412,509.199921 
	C1022.560120,507.735870 1024.369263,506.765778 1026.267334,506.041443 
	C1024.517700,513.629395 1019.217407,517.946106 1011.907837,518.673950 
	C1004.752502,519.386353 998.450256,515.502686 994.232178,507.502930 
M1017.315918,498.013062 
	C1019.196594,498.013062 1021.077271,498.013062 1023.145142,498.013062 
	C1020.790039,490.839874 1016.172546,487.606354 1009.578735,487.947205 
	C1003.639893,488.254181 999.484558,491.746277 998.161682,497.556885 
	C998.427429,497.689240 998.696411,497.939056 998.967041,497.940948 
	C1004.765625,497.981689 1010.564392,497.994659 1017.315918,498.013062 
z"/>
<path fill="#234E66" opacity="1.000000" stroke="none" 
	d="
M681.876343,515.773193 
	C681.254761,514.704407 680.848450,513.983459 680.184204,512.804810 
	C675.101562,517.114136 669.340271,520.389465 662.610229,517.942078 
	C659.041443,516.644287 655.371948,514.336853 652.935242,511.474457 
	C647.446716,505.026764 648.374268,495.241821 654.273193,489.153687 
	C660.893799,482.320770 669.583191,482.216431 679.125122,488.603912 
	C680.219177,487.080353 681.334595,485.526947 682.450012,483.973572 
	C683.015686,484.222198 683.581421,484.470856 684.147095,484.719513 
	C684.147095,492.496643 684.135315,500.273804 684.152710,508.050903 
	C684.160034,511.318024 684.143372,514.582886 688.711121,514.961243 
	C689.200378,515.001709 690.084106,516.503662 689.899109,516.992432 
	C689.625854,517.714417 688.379944,518.733582 687.859924,518.578857 
	C685.869629,517.986511 684.003845,516.975647 681.876343,515.773193 
M658.401428,490.749359 
	C652.826416,496.266479 651.694702,502.402496 655.182434,508.202972 
	C658.412781,513.575378 665.176331,515.976318 671.250305,513.906677 
	C677.187256,511.883698 680.901672,505.857483 679.973450,499.327850 
	C678.411438,488.339142 666.104431,484.942017 658.401428,490.749359 
z"/>
<path fill="#265068" opacity="1.000000" stroke="none" 
	d="
M818.227783,517.432129 
	C809.778931,520.021667 802.764221,518.546936 797.197510,511.845703 
	C795.077026,509.293121 795.682922,507.751434 799.136963,507.002380 
	C802.815247,513.304443 808.445007,516.217590 815.421265,513.780884 
	C818.214783,512.805237 820.969788,509.697327 822.235291,506.882446 
	C823.800903,503.399841 821.706848,499.963837 818.460815,498.004730 
	C815.060547,495.952454 811.376587,494.366302 807.798950,492.612518 
	C801.986267,489.763062 797.165588,486.276184 797.804504,478.726654 
	C798.265503,473.278748 801.140930,469.712799 806.143616,468.015411 
	C812.983765,465.694550 818.825623,467.630890 823.744690,472.594482 
	C823.717529,473.172211 823.690308,473.749939 823.663147,474.327667 
	C822.123718,474.166840 820.545593,474.168274 819.052979,473.811554 
	C815.902893,473.058716 812.797363,471.433411 809.674072,471.434753 
	C806.059937,471.436310 802.943237,473.536407 802.088745,477.510742 
	C801.230103,481.504791 802.539368,484.868286 806.159729,486.871338 
	C810.514343,489.280609 815.091797,491.284454 819.475891,493.643860 
	C824.243591,496.209808 827.082825,500.182343 826.760376,505.758362 
	C826.446106,511.191376 823.780457,515.185059 818.227783,517.432129 
z"/>
<path fill="#234E66" opacity="1.000000" stroke="none" 
	d="
M581.929260,516.214600 
	C574.366516,510.522888 571.832153,503.747986 574.133301,496.082245 
	C576.047058,489.707123 582.050964,484.700043 588.608337,484.010437 
	C596.194946,483.212585 602.948730,486.837311 606.280457,493.495026 
	C609.574402,500.077240 608.374695,508.054474 603.298950,513.320435 
	C597.832703,518.991516 590.304688,520.089050 581.929260,516.214600 
M600.522827,492.019714 
	C594.777771,487.308228 588.986450,486.578094 583.623230,489.889221 
	C578.941528,492.779663 576.446167,498.327179 577.475769,503.555634 
	C578.616699,509.348846 582.560669,513.338196 588.390930,514.386414 
	C594.023376,515.399048 598.684326,513.463745 601.788635,508.781952 
	C605.383179,503.360870 604.976257,497.815216 600.522827,492.019714 
z"/>
<path fill="#265068" opacity="1.000000" stroke="none" 
	d="
M881.130127,484.773315 
	C891.484741,482.441498 899.112427,486.246063 901.623291,496.123657 
	C900.056641,495.013824 898.233093,494.138000 896.970215,492.751556 
	C892.691406,488.054199 886.180786,486.532257 880.618225,489.197479 
	C875.364868,491.714508 872.289124,497.474976 873.141541,503.200592 
	C874.048828,509.295074 878.959229,513.984497 885.321716,514.567078 
	C890.143860,515.008606 893.957214,513.007935 897.195679,509.442383 
	C898.409424,508.106049 900.305481,507.389465 902.137207,506.800171 
	C899.695129,514.823853 892.630005,519.445679 885.161926,518.637573 
	C876.810669,517.733948 870.571045,511.909241 869.242065,503.776398 
	C867.949280,495.864960 872.295959,488.722656 881.130127,484.773315 
z"/>
<path fill="#265068" opacity="1.000000" stroke="none" 
	d="
M933.274719,489.335571 
	C925.289368,486.433411 918.262695,488.905334 915.123657,495.420776 
	C912.205383,501.478027 914.323608,508.942993 919.983093,512.546326 
	C926.012207,516.384827 933.018311,514.943848 938.233459,509.054047 
	C939.292725,507.857697 941.103638,507.326843 943.610413,505.892944 
	C940.343201,515.403015 932.599915,519.907410 924.290955,518.354919 
	C915.537109,516.719421 909.718933,509.554901 909.928711,500.669281 
	C910.127380,492.253601 916.673889,484.984711 924.934753,484.007263 
	C933.425232,483.002655 940.926025,487.671356 942.151367,496.302521 
	C939.307983,494.039612 936.464600,491.776733 933.274719,489.335571 
z"/>
<path fill="#1C4861" opacity="1.000000" stroke="none" 
	d="
M561.058350,517.983337 
	C560.265503,514.983337 559.718628,512.010925 559.579529,509.019501 
	C559.386719,504.870911 559.686829,500.696808 559.436279,496.554169 
	C559.104370,491.064972 555.534180,487.738403 550.533936,487.848755 
	C545.568298,487.958344 542.154480,491.495636 542.037231,496.970551 
	C541.909058,502.954376 542.126953,508.947723 541.896240,514.925476 
	C541.849060,516.146729 540.480408,517.317078 539.720886,518.510864 
	C539.241455,518.287048 538.762024,518.063293 538.282593,517.839478 
	C538.282593,506.935059 538.282593,496.030609 538.282593,484.133087 
	C540.019836,484.902069 541.393860,485.510284 543.295776,486.352112 
	C552.279846,479.759369 564.324951,485.898926 563.441284,499.378540 
	C563.104919,504.511505 563.493103,509.689056 563.301025,514.836914 
	C563.260864,515.913147 562.119934,516.948303 561.058350,517.983337 
z"/>
<path fill="#1C4861" opacity="1.000000" stroke="none" 
	d="
M521.535645,503.044556 
	C521.518860,500.561462 521.622681,498.558167 521.461792,496.576385 
	C521.016052,491.088684 517.561035,487.753387 512.567566,487.846710 
	C507.600525,487.939484 504.160400,491.470764 504.039307,496.926483 
	C503.906616,502.905640 504.127777,508.894714 503.898224,514.868042 
	C503.850037,516.121826 502.510986,517.325867 501.766785,518.552856 
	C501.278931,518.329468 500.791077,518.106079 500.303223,517.882629 
	C500.303223,506.987091 500.303223,496.091522 500.303223,484.256561 
	C501.942902,484.910980 503.321259,485.461090 505.581787,486.363251 
	C509.739288,483.299347 515.462036,482.124603 520.603882,486.847382 
	C522.838928,488.900269 524.766235,492.335907 525.015625,495.296600 
	C525.638489,502.693268 525.221008,510.177551 525.221008,517.626648 
	C524.778809,517.891968 524.336548,518.157288 523.894348,518.422668 
	C523.108337,517.281677 521.736633,516.185852 521.644653,514.991455 
	C521.351990,511.192139 521.535828,507.356049 521.535645,503.044556 
z"/>
<path fill="#234E66" opacity="1.000000" stroke="none" 
	d="
M859.524536,493.131470 
	C859.423523,498.433014 859.632874,503.289062 859.146240,508.074371 
	C858.478394,514.642212 853.252380,518.925903 846.854736,518.734436 
	C840.457825,518.542908 835.377563,513.983093 835.089539,507.435791 
	C834.761780,499.983551 835.013855,492.505829 835.013855,484.983307 
	C838.221436,483.769043 839.001587,485.040558 838.943542,487.867371 
	C838.827209,493.527191 838.845642,499.192169 838.933167,504.853119 
	C839.026245,510.875427 842.336670,514.717529 847.227966,514.691650 
	C851.989014,514.666504 855.338379,511.166901 855.546021,505.319916 
	C855.787109,498.530212 855.602173,491.725433 855.602173,484.935455 
	C859.525146,484.932404 859.525146,484.932404 859.524536,493.131470 
z"/>
<path fill="#234E66" opacity="1.000000" stroke="none" 
	d="
M697.531067,484.252533 
	C698.399475,479.586670 698.808228,475.043884 699.236267,470.286072 
	C701.621033,469.375092 703.013306,469.863129 702.880432,473.065399 
	C702.730103,476.687164 702.845764,480.319946 702.845764,483.873688 
	C706.126770,484.381531 708.968323,484.764557 711.760132,485.375000 
	C711.956543,485.417938 711.785828,487.140076 711.785828,488.353241 
	C708.866455,488.353241 706.225403,488.353241 702.983521,488.353241 
	C702.983521,495.842773 702.363342,503.163269 703.336304,510.265472 
	C703.655884,512.598511 708.104492,514.365845 711.281372,516.879578 
	C711.510986,516.615051 710.977234,517.783447 710.110779,518.137268 
	C704.855591,520.283203 699.057312,516.069885 698.882446,509.823242 
	C698.688293,502.889801 698.837952,495.946777 698.837952,488.829865 
	C696.733765,488.526611 695.136536,488.296387 693.514709,488.062622 
	C691.956665,484.116821 694.764221,484.488953 697.531067,484.252533 
z"/>
<path fill="#1C4861" opacity="1.000000" stroke="none" 
	d="
M386.000000,499.971802 
	C386.000000,501.794434 385.999725,503.124908 386.000031,504.455353 
	C386.002380,513.748047 386.078766,513.842529 395.424774,516.636353 
	C393.862976,517.325012 392.325867,518.529907 390.734741,518.606079 
	C385.834167,518.840576 382.112823,514.702454 382.026520,509.106201 
	C381.922028,502.332825 382.001770,495.556610 382.001770,489.671478 
	C379.638550,488.317566 377.997009,487.377106 376.355469,486.436646 
	C377.978699,485.458984 379.601898,484.481262 381.837402,483.134766 
	C381.837402,479.655701 381.837402,475.212067 381.837402,470.586792 
	C384.325409,469.689301 386.140533,469.152710 386.025879,472.776611 
	C385.905884,476.569763 385.999054,480.369720 385.999054,483.620911 
	C388.965363,485.977600 394.071014,481.892731 395.348511,488.092194 
	C392.023254,488.246368 389.257477,488.374573 386.000000,488.525604 
	C386.000000,492.247650 386.000000,495.863617 386.000000,499.971802 
z"/>
<path fill="#234E66" opacity="1.000000" stroke="none" 
	d="
M636.472717,493.372864 
	C637.424805,491.016418 637.932739,488.836792 639.054077,487.040009 
	C639.861755,485.745728 641.486816,484.961548 642.747314,483.949860 
	C643.120422,484.316528 643.493530,484.683167 643.866638,485.049805 
	C639.762146,495.333496 635.701294,505.635193 631.479919,515.870605 
	C631.094604,516.804932 629.671265,517.879089 628.745789,517.864807 
	C627.797058,517.850098 626.394958,516.773315 626.002686,515.825562 
	C621.825195,505.731903 617.809326,495.571411 613.679321,485.255249 
	C616.915405,483.437103 617.993347,485.185669 618.904663,487.584137 
	C622.005981,495.745850 625.167664,503.884552 628.728210,513.127136 
	C631.509521,505.987671 633.900330,499.850616 636.472717,493.372864 
z"/>
<path fill="#44687D" opacity="1.000000" stroke="none" 
	d="
M486.288025,468.281799 
	C486.595581,483.851257 486.588287,499.125092 486.717377,514.397766 
	C486.742920,517.419739 486.013916,518.929321 482.219208,517.541260 
	C482.219208,508.311523 482.219147,498.882111 482.219177,489.452698 
	C482.219208,483.309174 482.338776,477.162354 482.169128,471.023529 
	C482.084167,467.949066 483.255157,467.121643 486.288025,468.281799 
z"/>
<path fill="#265068" opacity="1.000000" stroke="none" 
	d="
M267.145264,502.995605 
	C267.145294,497.832947 267.021820,493.163849 267.222076,488.508667 
	C267.280579,487.148346 268.260864,485.827667 268.818665,484.488800 
	C269.957764,485.304230 271.096924,486.119659 271.908600,486.700684 
	C276.049255,485.846588 280.271545,484.951721 284.525696,484.250000 
	C284.622314,484.234070 285.079956,486.406921 285.389832,487.640961 
	C274.252197,488.544891 271.212311,491.839172 271.197174,502.465790 
	C271.190094,507.457153 271.195953,512.448486 271.195953,517.518616 
	C268.491272,518.553894 266.996796,518.262817 267.114014,514.986267 
	C267.250885,511.160217 267.145538,507.325470 267.145264,502.995605 
z"/>
<path fill="#275169" opacity="1.000000" stroke="none" 
	d="
M769.067017,514.168457 
	C766.910583,518.482178 765.028870,522.523926 762.807312,526.369324 
	C762.049683,527.680786 760.438171,528.498962 759.216858,529.542480 
	C758.877686,529.196228 758.538513,528.849915 758.199341,528.503662 
	C760.705444,522.989319 763.056519,517.395325 765.822632,512.014709 
	C766.545654,510.608368 768.559143,509.865417 769.979858,508.817749 
	C770.321289,509.192474 770.662720,509.567200 771.004089,509.941895 
	C770.405640,511.234467 769.807129,512.527039 769.067017,514.168457 
z"/>
<path fill="#275169" opacity="1.000000" stroke="none" 
	d="
M450.069214,509.957703 
	C451.509521,509.671661 452.713806,509.671661 454.057343,509.671661 
	C449.645721,521.967651 445.479858,528.475220 441.342194,528.714417 
	C444.256256,522.375427 447.044739,516.309570 450.069214,509.957703 
z"/>
<path fill="#FFFFFF" opacity="1.000000" stroke="none" 
	d="
M408.780334,348.002563 
	C408.780304,344.182800 408.780304,340.859741 408.780304,337.176147 
	C418.354645,337.176147 427.787872,336.679474 437.132965,337.372131 
	C442.306488,337.755646 445.763031,343.954895 445.329224,349.489288 
	C444.885162,355.153992 440.781952,359.817871 435.202911,360.017487 
	C426.589386,360.325714 417.956726,360.098694 408.780334,360.098694 
	C408.780334,356.056183 408.780334,352.277710 408.780334,348.002563 
z"/>
<path fill="#FEFFFF" opacity="1.000000" stroke="none" 
	d="
M437.641663,289.333435 
	C441.253571,293.744659 442.104431,298.237274 439.558960,303.047272 
	C437.015411,307.853699 432.794647,309.521362 427.514343,309.383636 
	C421.532776,309.227570 415.544006,309.347595 409.168945,309.347595 
	C409.168945,301.640411 409.168945,294.085480 409.168945,286.114594 
	C416.752411,286.114594 424.500916,285.938660 432.229950,286.248718 
	C433.978912,286.318878 435.660126,288.078461 437.641663,289.333435 
z"/>
<path fill="#FEFFFF" opacity="1.000000" stroke="none" 
	d="
M525.883789,319.272278 
	C528.106079,300.026581 542.483643,287.660339 561.860901,287.895935 
	C579.756287,288.113586 594.338013,301.000092 595.996155,318.062805 
	C597.945129,338.118317 586.996338,354.221222 568.273010,357.559052 
	C542.866211,362.088379 523.637634,343.571228 525.883789,319.272278 
z"/>
<path fill="#FAFBFB" opacity="1.000000" stroke="none" 
	d="
M888.044800,331.044128 
	C892.098755,318.026245 896.066284,305.402954 900.392029,291.639740 
	C905.538879,307.916779 910.333679,323.080444 915.255249,338.645142 
	C905.279846,338.645142 895.765076,338.645142 885.781677,338.645142 
	C886.541748,336.128601 887.250061,333.783691 888.044800,331.044128 
z"/>
<path fill="#FBFCFC" opacity="1.000000" stroke="none" 
	d="
M1056.318848,488.170807 
	C1064.937866,491.686707 1068.329224,498.007538 1065.962402,505.479889 
	C1063.943604,511.853729 1057.276367,515.714661 1050.665161,514.338379 
	C1043.599365,512.867554 1039.348999,507.125671 1039.942139,499.852631 
	C1040.487793,493.160309 1045.921021,488.168152 1052.939819,487.946442 
	C1053.930420,487.915131 1054.925903,488.038086 1056.318848,488.170807 
z"/>
<path fill="#FBFCFC" opacity="1.000000" stroke="none" 
	d="
M361.080505,508.817108 
	C355.975800,514.436584 350.609222,515.960266 344.870331,513.691406 
	C339.845703,511.704865 336.559479,506.751862 336.585022,501.203491 
	C336.611694,495.408783 339.981232,490.655304 345.467529,488.672699 
	C350.622009,486.809998 356.340515,488.247681 359.987854,492.323334 
	C363.943298,496.743195 364.376068,502.138733 361.080505,508.817108 
z"/>
<path fill="#FBFCFC" opacity="1.000000" stroke="none" 
	d="
M960.416870,490.149597 
	C968.180359,484.853027 979.533203,489.673096 980.526489,497.781128 
	C972.152405,497.781128 963.805908,497.781128 954.172363,497.781128 
	C956.526917,494.821960 958.307068,492.584686 960.416870,490.149597 
z"/>
<path fill="#FBFCFC" opacity="1.000000" stroke="none" 
	d="
M429.630310,498.008728 
	C421.900574,498.010101 414.627777,498.010101 407.294891,498.010101 
	C408.508942,492.330688 412.340973,488.725647 417.658447,488.025299 
	C423.432648,487.264862 429.175476,490.097626 431.459320,494.838104 
	C432.219757,496.416504 433.148285,498.078552 429.630310,498.008728 
z"/>
<path fill="#FBFCFC" opacity="1.000000" stroke="none" 
	d="
M296.658173,492.957703 
	C303.871307,484.034363 318.219055,487.984741 319.762115,497.731323 
	C311.510895,497.731323 303.298920,497.731323 294.338165,497.731323 
	C295.099365,496.075165 295.747070,494.665955 296.658173,492.957703 
z"/>
<path fill="#FAFBFB" opacity="1.000000" stroke="none" 
	d="
M739.366821,488.132324 
	C745.918274,490.725708 747.544678,492.403107 748.880676,497.808777 
	C748.067139,497.878693 747.296814,498.000977 746.526245,498.002472 
	C739.087524,498.016968 731.648804,498.011139 724.151794,498.011139 
	C725.467896,490.749146 730.128784,487.714691 739.366821,488.132324 
z"/>
<path fill="#FAFBFB" opacity="1.000000" stroke="none" 
	d="
M1016.839539,498.013062 
	C1010.564392,497.994659 1004.765625,497.981689 998.967041,497.940948 
	C998.696411,497.939056 998.427429,497.689240 998.161682,497.556885 
	C999.484558,491.746277 1003.639893,488.254181 1009.578735,487.947205 
	C1016.172546,487.606354 1020.790039,490.839874 1023.145142,498.013062 
	C1021.077271,498.013062 1019.196594,498.013062 1016.839539,498.013062 
z"/>
<path fill="#FBFCFC" opacity="1.000000" stroke="none" 
	d="
M658.695190,490.501343 
	C666.104431,484.942017 678.411438,488.339142 679.973450,499.327850 
	C680.901672,505.857483 677.187256,511.883698 671.250305,513.906677 
	C665.176331,515.976318 658.412781,513.575378 655.182434,508.202972 
	C651.694702,502.402496 652.826416,496.266479 658.695190,490.501343 
z"/>
<path fill="#FBFCFC" opacity="1.000000" stroke="none" 
	d="
M600.767212,492.308441 
	C604.976257,497.815216 605.383179,503.360870 601.788635,508.781952 
	C598.684326,513.463745 594.023376,515.399048 588.390930,514.386414 
	C582.560669,513.338196 578.616699,509.348846 577.475769,503.555634 
	C576.446167,498.327179 578.941528,492.779663 583.623230,489.889221 
	C588.986450,486.578094 594.777771,487.308228 600.767212,492.308441 
z"/>
</svg>