<svg xmlns="http://www.w3.org/2000/svg" xmlns:xlink="http://www.w3.org/1999/xlink" width="1280" zoomAndPan="magnify" viewBox="0 0 960 576.75" height="769" preserveAspectRatio="xMidYMid meet" version="1.0"><defs><g/></defs><g fill="#16435d" fill-opacity="1"><g transform="translate(54.623912, 291.434643)"><g><path d="M 114.144531 -100.417969 L 98.578125 -34.308594 L 80.835938 -100.417969 L 57.574219 -100.417969 L 39.832031 -34.308594 L 24.433594 -100.417969 L -2.679688 -100.417969 L 23.429688 0 L 53.390625 0 L 69.289062 -63.933594 L 85.019531 0 L 114.980469 0 L 141.257812 -100.417969 Z M 114.144531 -100.417969 "/></g></g></g><g fill="#16435d" fill-opacity="1"><g transform="translate(193.022681, 291.434643)"><g><path d="M 72.300781 -78.160156 L 72.300781 -100.417969 L 10.042969 -100.417969 L 10.042969 0 L 72.300781 0 L 72.300781 -22.257812 L 35.648438 -22.257812 L 35.648438 -39.164062 L 66.609375 -39.164062 L 66.609375 -61.253906 L 35.648438 -61.253906 L 35.648438 -78.160156 Z M 72.300781 -78.160156 "/></g></g></g><g fill="#16435d" fill-opacity="1"><g transform="translate(271.007973, 291.434643)"><g><path d="M 73.304688 -51.046875 C 80.335938 -54.894531 84.6875 -61.589844 84.6875 -72.132812 C 84.6875 -90.378906 70.960938 -100.417969 53.722656 -100.417969 L 9.203125 -100.417969 L 9.203125 0 L 57.574219 0 C 74.644531 0 88.035156 -9.371094 88.035156 -27.78125 C 88.035156 -39.832031 82.175781 -47.195312 73.304688 -51.046875 Z M 59.078125 -69.289062 C 59.078125 -64.769531 55.230469 -60.417969 50.542969 -60.417969 L 34.8125 -60.417969 L 34.8125 -78.160156 L 50.542969 -78.160156 C 55.230469 -78.160156 59.078125 -73.976562 59.078125 -69.289062 Z M 53.722656 -22.257812 L 34.8125 -22.257812 L 34.8125 -40 L 53.722656 -40 C 58.746094 -40 62.425781 -35.648438 62.425781 -31.128906 C 62.425781 -26.445312 58.746094 -22.257812 53.722656 -22.257812 Z M 53.722656 -22.257812 "/></g></g></g><g fill="#0cc0df" fill-opacity="1"><g transform="translate(362.872935, 291.434643)"><g><path d="M 57.238281 1.339844 C 85.691406 1.339844 108.789062 -21.757812 108.789062 -50.210938 C 108.789062 -78.660156 85.691406 -101.757812 57.238281 -101.757812 C 28.621094 -101.757812 5.691406 -78.660156 5.691406 -50.210938 C 5.691406 -21.757812 28.621094 1.339844 57.238281 1.339844 Z M 57.238281 -23.765625 C 42.007812 -23.765625 30.628906 -34.980469 30.628906 -50.210938 C 30.628906 -65.441406 42.007812 -76.652344 57.238281 -76.652344 C 72.300781 -76.652344 83.683594 -65.441406 83.683594 -50.210938 C 83.683594 -34.980469 72.300781 -23.765625 57.238281 -23.765625 Z M 57.238281 -23.765625 "/></g></g></g><g fill="#16435d" fill-opacity="1"><g transform="translate(477.13921, 291.434643)"><g><path d="M 73.136719 -100.417969 L -1.507812 -100.417969 L -1.507812 -78.160156 L 23.097656 -78.160156 L 23.097656 0 L 48.535156 0 L 48.535156 -78.160156 L 73.136719 -78.160156 Z M 73.136719 -100.417969 "/></g></g></g><g fill="#16435d" fill-opacity="1"><g transform="translate(548.765171, 291.434643)"><g><path d="M 72.300781 -78.160156 L 72.300781 -100.417969 L 10.042969 -100.417969 L 10.042969 0 L 72.300781 0 L 72.300781 -22.257812 L 35.648438 -22.257812 L 35.648438 -39.164062 L 66.609375 -39.164062 L 66.609375 -61.253906 L 35.648438 -61.253906 L 35.648438 -78.160156 Z M 72.300781 -78.160156 "/></g></g></g><g fill="#16435d" fill-opacity="1"><g transform="translate(626.750464, 291.434643)"><g><path d="M 70.796875 0 L 98.242188 0 L 61.925781 -100.417969 L 33.304688 -100.417969 L -3.011719 0 L 24.601562 0 L 30.125 -17.574219 L 65.273438 -17.574219 Z M 36.652344 -38.328125 L 47.699219 -73.808594 L 58.914062 -38.328125 Z M 36.652344 -38.328125 "/></g></g></g><g fill="#16435d" fill-opacity="1"><g transform="translate(722.140168, 291.434643)"><g><path d="M 96.402344 -100.417969 L 66.609375 -36.484375 L 36.988281 -100.417969 L 9.203125 -100.417969 L 9.203125 0 L 34.8125 0 L 34.8125 -54.058594 L 59.75 0 L 73.472656 0 L 98.410156 -53.722656 L 98.410156 0 L 124.015625 0 L 124.015625 -100.417969 Z M 96.402344 -100.417969 "/></g></g></g><g fill="#0cc0df" fill-opacity="1"><g transform="translate(855.315595, 291.434643)"><g><path d="M 24.9375 1.339844 C 32.132812 1.339844 38.160156 -4.6875 38.160156 -11.714844 C 38.160156 -18.914062 32.132812 -24.769531 24.9375 -24.769531 C 17.90625 -24.769531 11.882812 -18.914062 11.882812 -11.714844 C 11.882812 -4.6875 17.90625 1.339844 24.9375 1.339844 Z M 24.9375 1.339844 "/></g></g></g><g fill="#16435d" fill-opacity="1"><g transform="translate(152.991815, 387.899336)"><g><path d="M 22.785156 0.503906 C 30.003906 0.503906 36.21875 -3.390625 39.542969 -9.226562 L 36.972656 -10.671875 C 34.148438 -5.773438 28.875 -2.511719 22.785156 -2.511719 C 13.746094 -2.511719 6.464844 -9.792969 6.464844 -18.832031 C 6.464844 -27.871094 13.746094 -35.152344 22.785156 -35.152344 C 28.875 -35.152344 34.148438 -31.886719 36.972656 -26.992188 L 39.542969 -28.433594 C 36.21875 -34.273438 30.003906 -38.164062 22.785156 -38.164062 C 12.113281 -38.164062 3.453125 -29.5 3.453125 -18.832031 C 3.453125 -8.160156 12.113281 0.503906 22.785156 0.503906 Z M 22.785156 0.503906 "/></g></g></g><g fill="#16435d" fill-opacity="1"><g transform="translate(194.921927, 387.899336)"><g><path d="M 16.320312 -25.609375 C 12.679688 -25.609375 9.667969 -23.851562 7.847656 -21.214844 L 7.847656 -25.109375 L 4.894531 -25.109375 L 4.894531 0 L 7.847656 0 L 7.847656 -14.375 C 7.847656 -19.082031 11.613281 -22.660156 16.320312 -22.660156 C 17.074219 -22.660156 17.828125 -22.597656 18.390625 -22.410156 L 18.390625 -25.421875 C 17.765625 -25.546875 17.074219 -25.609375 16.320312 -25.609375 Z M 16.320312 -25.609375 "/></g></g></g><g fill="#16435d" fill-opacity="1"><g transform="translate(213.752827, 387.899336)"><g><path d="M 29.125 -12.929688 C 28.875 -20.085938 23.226562 -25.609375 16.132812 -25.609375 C 8.914062 -25.609375 3.074219 -19.773438 3.074219 -12.554688 C 3.074219 -5.335938 8.914062 0.503906 16.132812 0.503906 C 22.03125 0.503906 26.992188 -3.390625 28.621094 -8.789062 L 25.546875 -8.789062 C 24.039062 -5.023438 20.398438 -2.449219 16.132812 -2.449219 C 10.609375 -2.449219 6.089844 -6.777344 5.964844 -12.238281 L 29.125 -12.238281 Z M 16.132812 -22.660156 C 20.839844 -22.660156 24.855469 -19.394531 25.921875 -14.9375 L 6.277344 -14.9375 C 7.34375 -19.457031 11.296875 -22.660156 16.132812 -22.660156 Z M 16.132812 -22.660156 "/></g></g></g><g fill="#16435d" fill-opacity="1"><g transform="translate(245.702587, 387.899336)"><g><path d="M 31.886719 -2.386719 C 30.316406 -2.386719 29.1875 -3.453125 29.1875 -5.835938 L 29.1875 -25.109375 L 26.238281 -25.109375 L 26.238281 -20.777344 C 23.851562 -23.726562 20.210938 -25.609375 16.132812 -25.609375 C 8.914062 -25.609375 3.074219 -19.773438 3.074219 -12.554688 C 3.074219 -5.335938 8.914062 0.503906 16.132812 0.503906 C 20.273438 0.503906 23.976562 -1.445312 26.300781 -4.519531 C 26.738281 -1.507812 28.6875 0.503906 31.699219 0.503906 C 32.390625 0.503906 33.078125 0.3125 33.582031 0 L 33.582031 -2.386719 Z M 16.132812 -2.449219 C 10.484375 -2.449219 5.964844 -6.90625 5.964844 -12.554688 C 5.964844 -18.203125 10.484375 -22.660156 16.132812 -22.660156 C 21.71875 -22.660156 26.238281 -18.203125 26.238281 -12.554688 C 26.238281 -6.90625 21.71875 -2.449219 16.132812 -2.449219 Z M 16.132812 -2.449219 "/></g></g></g><g fill="#16435d" fill-opacity="1"><g transform="translate(279.974823, 387.899336)"><g><path d="M 15.691406 -22.21875 L 15.691406 -25.109375 L 8.789062 -25.109375 L 8.789062 -36.03125 L 5.835938 -36.03125 L 5.835938 -25.109375 L 1.632812 -25.109375 L 1.632812 -22.21875 L 5.835938 -22.21875 L 5.835938 -6.027344 C 5.835938 -2.449219 8.851562 0.503906 12.492188 0.503906 C 13.621094 0.503906 14.9375 0.125 15.628906 -0.3125 L 15.628906 -2.386719 L 12.804688 -2.386719 C 10.609375 -2.386719 8.789062 -4.015625 8.789062 -6.402344 L 8.789062 -22.21875 Z M 15.691406 -22.21875 "/></g></g></g><g fill="#16435d" fill-opacity="1"><g transform="translate(297.989729, 387.899336)"><g><path d="M 29.125 -12.929688 C 28.875 -20.085938 23.226562 -25.609375 16.132812 -25.609375 C 8.914062 -25.609375 3.074219 -19.773438 3.074219 -12.554688 C 3.074219 -5.335938 8.914062 0.503906 16.132812 0.503906 C 22.03125 0.503906 26.992188 -3.390625 28.621094 -8.789062 L 25.546875 -8.789062 C 24.039062 -5.023438 20.398438 -2.449219 16.132812 -2.449219 C 10.609375 -2.449219 6.089844 -6.777344 5.964844 -12.238281 L 29.125 -12.238281 Z M 16.132812 -22.660156 C 20.839844 -22.660156 24.855469 -19.394531 25.921875 -14.9375 L 6.277344 -14.9375 C 7.34375 -19.457031 11.296875 -22.660156 16.132812 -22.660156 Z M 16.132812 -22.660156 "/></g></g></g><g fill="#16435d" fill-opacity="1"><g transform="translate(329.939489, 387.899336)"><g><path d="M 2.949219 8.285156 L 10.417969 -6.402344 L 7.03125 -6.402344 L 0.375 8.285156 Z M 2.949219 8.285156 "/></g></g></g><g fill="#16435d" fill-opacity="1"><g transform="translate(340.610327, 387.899336)"><g/></g></g><g fill="#16435d" fill-opacity="1"><g transform="translate(356.051664, 387.899336)"><g><path d="M 5.210938 0 L 8.222656 0 L 8.222656 -37.660156 L 5.210938 -37.660156 Z M 5.210938 0 "/></g></g></g><g fill="#16435d" fill-opacity="1"><g transform="translate(369.421617, 387.899336)"><g><path d="M 14.6875 -25.609375 C 11.988281 -25.609375 9.539062 -24.417969 7.847656 -22.410156 L 7.847656 -25.109375 L 4.894531 -25.109375 L 4.894531 0 L 7.847656 0 L 7.847656 -16.132812 C 7.847656 -19.773438 10.796875 -22.722656 14.4375 -22.722656 C 18.078125 -22.722656 21.027344 -19.773438 21.027344 -16.132812 L 21.027344 0 L 23.914062 0 L 23.914062 -16.132812 C 23.914062 -21.40625 19.585938 -25.609375 14.6875 -25.609375 Z M 14.6875 -25.609375 "/></g></g></g><g fill="#16435d" fill-opacity="1"><g transform="translate(397.856267, 387.899336)"><g><path d="M 14.6875 -25.609375 C 11.988281 -25.609375 9.539062 -24.417969 7.847656 -22.410156 L 7.847656 -25.109375 L 4.894531 -25.109375 L 4.894531 0 L 7.847656 0 L 7.847656 -16.132812 C 7.847656 -19.773438 10.796875 -22.722656 14.4375 -22.722656 C 18.078125 -22.722656 21.027344 -19.773438 21.027344 -16.132812 L 21.027344 0 L 23.914062 0 L 23.914062 -16.132812 C 23.914062 -21.40625 19.585938 -25.609375 14.6875 -25.609375 Z M 14.6875 -25.609375 "/></g></g></g><g fill="#16435d" fill-opacity="1"><g transform="translate(426.290918, 387.899336)"><g><path d="M 16.132812 0.503906 C 23.351562 0.503906 29.1875 -5.335938 29.1875 -12.554688 C 29.1875 -19.773438 23.351562 -25.609375 16.132812 -25.609375 C 8.914062 -25.609375 3.074219 -19.773438 3.074219 -12.554688 C 3.074219 -5.335938 8.914062 0.503906 16.132812 0.503906 Z M 16.132812 -2.449219 C 10.484375 -2.449219 5.964844 -6.90625 5.964844 -12.554688 C 5.964844 -18.203125 10.484375 -22.660156 16.132812 -22.660156 C 21.71875 -22.660156 26.238281 -18.203125 26.238281 -12.554688 C 26.238281 -6.90625 21.71875 -2.449219 16.132812 -2.449219 Z M 16.132812 -2.449219 "/></g></g></g><g fill="#16435d" fill-opacity="1"><g transform="translate(458.491733, 387.899336)"><g><path d="M 20.777344 -25.109375 L 12.367188 -3.515625 L 4.015625 -25.109375 L 0.878906 -25.109375 L 10.921875 0 L 13.808594 0 L 23.851562 -25.109375 Z M 20.777344 -25.109375 "/></g></g></g><g fill="#16435d" fill-opacity="1"><g transform="translate(483.222972, 387.899336)"><g><path d="M 31.886719 -2.386719 C 30.316406 -2.386719 29.1875 -3.453125 29.1875 -5.835938 L 29.1875 -25.109375 L 26.238281 -25.109375 L 26.238281 -20.777344 C 23.851562 -23.726562 20.210938 -25.609375 16.132812 -25.609375 C 8.914062 -25.609375 3.074219 -19.773438 3.074219 -12.554688 C 3.074219 -5.335938 8.914062 0.503906 16.132812 0.503906 C 20.273438 0.503906 23.976562 -1.445312 26.300781 -4.519531 C 26.738281 -1.507812 28.6875 0.503906 31.699219 0.503906 C 32.390625 0.503906 33.078125 0.3125 33.582031 0 L 33.582031 -2.386719 Z M 16.132812 -2.449219 C 10.484375 -2.449219 5.964844 -6.90625 5.964844 -12.554688 C 5.964844 -18.203125 10.484375 -22.660156 16.132812 -22.660156 C 21.71875 -22.660156 26.238281 -18.203125 26.238281 -12.554688 C 26.238281 -6.90625 21.71875 -2.449219 16.132812 -2.449219 Z M 16.132812 -2.449219 "/></g></g></g><g fill="#16435d" fill-opacity="1"><g transform="translate(517.495208, 387.899336)"><g><path d="M 15.691406 -22.21875 L 15.691406 -25.109375 L 8.789062 -25.109375 L 8.789062 -36.03125 L 5.835938 -36.03125 L 5.835938 -25.109375 L 1.632812 -25.109375 L 1.632812 -22.21875 L 5.835938 -22.21875 L 5.835938 -6.027344 C 5.835938 -2.449219 8.851562 0.503906 12.492188 0.503906 C 13.621094 0.503906 14.9375 0.125 15.628906 -0.3125 L 15.628906 -2.386719 L 12.804688 -2.386719 C 10.609375 -2.386719 8.789062 -4.015625 8.789062 -6.402344 L 8.789062 -22.21875 Z M 15.691406 -22.21875 "/></g></g></g><g fill="#16435d" fill-opacity="1"><g transform="translate(535.510114, 387.899336)"><g><path d="M 29.125 -12.929688 C 28.875 -20.085938 23.226562 -25.609375 16.132812 -25.609375 C 8.914062 -25.609375 3.074219 -19.773438 3.074219 -12.554688 C 3.074219 -5.335938 8.914062 0.503906 16.132812 0.503906 C 22.03125 0.503906 26.992188 -3.390625 28.621094 -8.789062 L 25.546875 -8.789062 C 24.039062 -5.023438 20.398438 -2.449219 16.132812 -2.449219 C 10.609375 -2.449219 6.089844 -6.777344 5.964844 -12.238281 L 29.125 -12.238281 Z M 16.132812 -22.660156 C 20.839844 -22.660156 24.855469 -19.394531 25.921875 -14.9375 L 6.277344 -14.9375 C 7.34375 -19.457031 11.296875 -22.660156 16.132812 -22.660156 Z M 16.132812 -22.660156 "/></g></g></g><g fill="#16435d" fill-opacity="1"><g transform="translate(567.459874, 387.899336)"><g><path d="M 2.949219 8.285156 L 10.417969 -6.402344 L 7.03125 -6.402344 L 0.375 8.285156 Z M 2.949219 8.285156 "/></g></g></g><g fill="#16435d" fill-opacity="1"><g transform="translate(578.130712, 387.899336)"><g/></g></g><g fill="#16435d" fill-opacity="1"><g transform="translate(593.572049, 387.899336)"><g><path d="M 14.1875 0.503906 C 20.273438 0.503906 25.671875 -3.011719 25.671875 -9.605469 C 25.671875 -22.09375 6.90625 -19.082031 6.90625 -28.8125 C 6.90625 -33.078125 10.417969 -35.152344 14.1875 -35.152344 C 17.324219 -35.152344 19.960938 -33.707031 21.40625 -31.636719 L 23.789062 -33.582031 C 21.84375 -36.15625 18.328125 -38.164062 14.125 -38.164062 C 8.726562 -38.164062 3.890625 -34.710938 3.890625 -28.621094 C 3.890625 -16.507812 22.660156 -19.457031 22.660156 -9.476562 C 22.660156 -5.023438 18.832031 -2.511719 14.25 -2.511719 C 9.667969 -2.511719 6.277344 -5.023438 4.957031 -8.535156 L 2.195312 -6.96875 C 4.015625 -2.574219 8.597656 0.503906 14.1875 0.503906 Z M 14.1875 0.503906 "/></g></g></g><g fill="#16435d" fill-opacity="1"><g transform="translate(621.441759, 387.899336)"><g><path d="M 13.246094 0.503906 C 18.640625 0.503906 22.472656 -3.453125 22.472656 -9.101562 L 22.472656 -25.109375 L 19.585938 -25.109375 L 19.585938 -9.414062 C 19.585938 -5.273438 16.886719 -2.449219 13.246094 -2.449219 C 9.730469 -2.449219 6.96875 -5.273438 6.96875 -9.414062 L 6.96875 -25.109375 L 4.078125 -25.109375 L 4.078125 -9.101562 C 4.078125 -3.453125 7.847656 0.503906 13.246094 0.503906 Z M 13.246094 0.503906 "/></g></g></g><g fill="#16435d" fill-opacity="1"><g transform="translate(647.993327, 387.899336)"><g><path d="M 16.132812 0.503906 C 21.84375 0.503906 26.675781 -3.203125 28.433594 -8.285156 L 25.359375 -8.285156 C 23.726562 -4.769531 20.148438 -2.449219 16.132812 -2.449219 C 10.546875 -2.449219 5.964844 -6.84375 5.964844 -12.554688 C 5.964844 -18.265625 10.546875 -22.660156 16.132812 -22.660156 C 20.148438 -22.660156 23.726562 -20.335938 25.359375 -16.820312 L 28.433594 -16.820312 C 26.675781 -21.90625 21.84375 -25.609375 16.132812 -25.609375 C 8.914062 -25.609375 3.074219 -19.773438 3.074219 -12.554688 C 3.074219 -5.335938 8.914062 0.503906 16.132812 0.503906 Z M 16.132812 0.503906 "/></g></g></g><g fill="#16435d" fill-opacity="1"><g transform="translate(678.49936, 387.899336)"><g><path d="M 16.132812 0.503906 C 21.84375 0.503906 26.675781 -3.203125 28.433594 -8.285156 L 25.359375 -8.285156 C 23.726562 -4.769531 20.148438 -2.449219 16.132812 -2.449219 C 10.546875 -2.449219 5.964844 -6.84375 5.964844 -12.554688 C 5.964844 -18.265625 10.546875 -22.660156 16.132812 -22.660156 C 20.148438 -22.660156 23.726562 -20.335938 25.359375 -16.820312 L 28.433594 -16.820312 C 26.675781 -21.90625 21.84375 -25.609375 16.132812 -25.609375 C 8.914062 -25.609375 3.074219 -19.773438 3.074219 -12.554688 C 3.074219 -5.335938 8.914062 0.503906 16.132812 0.503906 Z M 16.132812 0.503906 "/></g></g></g><g fill="#16435d" fill-opacity="1"><g transform="translate(709.005393, 387.899336)"><g><path d="M 29.125 -12.929688 C 28.875 -20.085938 23.226562 -25.609375 16.132812 -25.609375 C 8.914062 -25.609375 3.074219 -19.773438 3.074219 -12.554688 C 3.074219 -5.335938 8.914062 0.503906 16.132812 0.503906 C 22.03125 0.503906 26.992188 -3.390625 28.621094 -8.789062 L 25.546875 -8.789062 C 24.039062 -5.023438 20.398438 -2.449219 16.132812 -2.449219 C 10.609375 -2.449219 6.089844 -6.777344 5.964844 -12.238281 L 29.125 -12.238281 Z M 16.132812 -22.660156 C 20.839844 -22.660156 24.855469 -19.394531 25.921875 -14.9375 L 6.277344 -14.9375 C 7.34375 -19.457031 11.296875 -22.660156 16.132812 -22.660156 Z M 16.132812 -22.660156 "/></g></g></g><g fill="#16435d" fill-opacity="1"><g transform="translate(740.955154, 387.899336)"><g><path d="M 29.125 -12.929688 C 28.875 -20.085938 23.226562 -25.609375 16.132812 -25.609375 C 8.914062 -25.609375 3.074219 -19.773438 3.074219 -12.554688 C 3.074219 -5.335938 8.914062 0.503906 16.132812 0.503906 C 22.03125 0.503906 26.992188 -3.390625 28.621094 -8.789062 L 25.546875 -8.789062 C 24.039062 -5.023438 20.398438 -2.449219 16.132812 -2.449219 C 10.609375 -2.449219 6.089844 -6.777344 5.964844 -12.238281 L 29.125 -12.238281 Z M 16.132812 -22.660156 C 20.839844 -22.660156 24.855469 -19.394531 25.921875 -14.9375 L 6.277344 -14.9375 C 7.34375 -19.457031 11.296875 -22.660156 16.132812 -22.660156 Z M 16.132812 -22.660156 "/></g></g></g><g fill="#16435d" fill-opacity="1"><g transform="translate(772.904914, 387.899336)"><g><path d="M 26.238281 -46.199219 L 26.238281 -20.839844 C 23.851562 -23.726562 20.210938 -25.609375 16.132812 -25.609375 C 8.914062 -25.609375 3.074219 -19.773438 3.074219 -12.554688 C 3.074219 -5.335938 8.914062 0.503906 16.132812 0.503906 C 20.210938 0.503906 23.851562 -1.382812 26.238281 -4.269531 L 26.238281 0 L 29.1875 0 L 29.1875 -46.199219 Z M 16.132812 -2.449219 C 10.484375 -2.449219 5.964844 -6.90625 5.964844 -12.554688 C 5.964844 -18.203125 10.484375 -22.660156 16.132812 -22.660156 C 21.71875 -22.660156 26.238281 -18.203125 26.238281 -12.554688 C 26.238281 -6.90625 21.71875 -2.449219 16.132812 -2.449219 Z M 16.132812 -2.449219 "/></g></g></g></svg>